# xmcd
#
# Track frame offsets:
#	150
#	15410
#	31110
#	45430
#	59440
#	74340
#	89165
#	103300
#	117350
#	130840
#	145220
#	162105
#	176765
#	189800
#
# Disc length: 2728 seconds
#
# Revision: 2
# Processed by: cddbd v1.5.2PL0 Copyright (c) Steve Scherf et al.
# Submitted via: EZCDAudioConverter 2.2.2.1
#
DISCID=bd0aa60e
DTITLE=Lucho Gatica - The Gold Collection (The Best Of Lucho Gatica)
DYEAR=1996
DGENRE=blues
TTITLE0=El Reloj
TTITLE1=La Barca
TTITLE2=Las Muchachas De La Plaza España
TTITLE3=Esperame En El Cielo
TTITLE4=Sabra Dios
TTITLE5=Historia De Un Amor
TTITLE6=Besame Mucho
TTITLE7=Rueg Por Nosotros
TTITLE8=Angustia
TTITLE9=Vilma
TTITLE10=Tu Me Acostumbraste
TTITLE11=Encadenados
TTITLE12=Somos
TTITLE13=Contigo En La Distancia
EXTD=
EXTT0=
EXTT1=
EXTT2=
EXTT3=
EXTT4=
EXTT5=
EXTT6=
EXTT7=
EXTT8=
EXTT9=
EXTT10=
EXTT11=
EXTT12=
EXTT13=
PLAYORDER=
